<svg width="25" height="25" viewBox="0 0 25 25" fill="none" xmlns="http://www.w3.org/2000/svg">
<g clip-path="url(#clip0_5240_14773)">
<path d="M15.6308 19.9081C15.6308 19.1496 15.3295 18.4221 14.7932 17.8858C14.2568 17.3494 13.5293 17.0481 12.7708 17.0481C12.0123 17.0481 11.2849 17.3494 10.7485 17.8858C10.2121 18.4221 9.91083 19.1496 9.91083 19.9081V22.7681" stroke="#5D00FF" stroke-width="2" stroke-miterlimit="10"/>
<path d="M12.7708 15.1381C13.8257 15.1381 14.6808 14.283 14.6808 13.2281C14.6808 12.1733 13.8257 11.3181 12.7708 11.3181C11.716 11.3181 10.8608 12.1733 10.8608 13.2281C10.8608 14.283 11.716 15.1381 12.7708 15.1381Z" stroke="#5D00FF" stroke-width="2" stroke-miterlimit="10"/>
<path d="M20.4108 17.048C21.4657 17.048 22.3208 16.1929 22.3208 15.138C22.3208 14.0832 21.4657 13.228 20.4108 13.228C19.3559 13.228 18.5008 14.0832 18.5008 15.138C18.5008 16.1929 19.3559 17.048 20.4108 17.048Z" stroke="#5D00FF" stroke-width="2" stroke-miterlimit="10"/>
<path d="M2.27081 22.768V21.818C2.27081 21.0586 2.57181 20.3301 3.10788 19.7921C3.64395 19.2542 4.37138 18.9506 5.13081 18.948C5.89198 18.948 6.62198 19.2504 7.16021 19.7886C7.69844 20.3268 8.00081 21.0568 8.00081 21.818V22.768" stroke="#5D00FF" stroke-width="2" stroke-miterlimit="10"/>
<path d="M17.5408 22.768V21.818C17.5408 21.0568 17.8432 20.3268 18.3814 19.7886C18.9197 19.2504 19.6497 18.948 20.4108 18.948C21.1703 18.9506 21.8977 19.2542 22.4338 19.7921C22.9698 20.3301 23.2708 21.0586 23.2708 21.818V22.768" stroke="#5D00FF" stroke-width="2" stroke-miterlimit="10"/>
<path d="M5.13083 17.048C6.18569 17.048 7.04083 16.1929 7.04083 15.138C7.04083 14.0832 6.18569 13.228 5.13083 13.228C4.07596 13.228 3.22083 14.0832 3.22083 15.138C3.22083 16.1929 4.07596 17.048 5.13083 17.048Z" stroke="#5D00FF" stroke-width="2" stroke-miterlimit="10"/>
<path d="M15.6308 19.908V22.768" stroke="#5D00FF" stroke-width="2" stroke-miterlimit="10"/>
<path d="M12.7708 2.72803L13.2308 3.66803L14.2808 3.81803L13.5208 4.54803L13.7008 5.58803L12.7708 5.09803L11.8408 5.58803L12.0208 4.54803L11.2608 3.81803L12.3108 3.66803L12.7708 2.72803Z" stroke="#5D00FF" stroke-width="2" stroke-miterlimit="10"/>
<path d="M20.4108 5.58813L20.8708 6.52813L21.9108 6.67813L21.1608 7.41813L21.3408 8.45813L20.4108 7.95813L19.4808 8.45813L19.6508 7.41813L18.9008 6.67813L19.9408 6.52813L20.4108 5.58813Z" stroke="#5D00FF" stroke-width="2" stroke-miterlimit="10"/>
<path d="M5.1308 5.58813L5.6008 6.52813L6.6408 6.67813L5.8908 7.41813L6.0608 8.45813L5.1308 7.95813L4.2008 8.45813L4.3808 7.41813L3.6308 6.67813L4.6708 6.52813L5.1308 5.58813Z" stroke="#5D00FF" stroke-width="2" stroke-miterlimit="10"/>
</g>
<defs>
<clipPath id="clip0_5240_14773">
<rect width="24" height="24" fill="white" transform="translate(0.770813 0.248047)"/>
</clipPath>
</defs>
</svg>
