<svg width="49" height="49" viewBox="0 0 49 49" fill="none" xmlns="http://www.w3.org/2000/svg">
<path d="M30.4908 39.5716C30.4908 38.0545 29.8882 36.5996 28.8155 35.5269C27.7428 34.4542 26.2878 33.8516 24.7708 33.8516C23.2538 33.8516 21.7989 34.4542 20.7262 35.5269C19.6535 36.5996 19.0508 38.0545 19.0508 39.5716V45.2916" stroke="#5D00FF" stroke-width="2" stroke-miterlimit="10"/>
<path d="M24.7708 30.0316C26.8805 30.0316 28.5908 28.3213 28.5908 26.2116C28.5908 24.1019 26.8805 22.3916 24.7708 22.3916C22.6611 22.3916 20.9508 24.1019 20.9508 26.2116C20.9508 28.3213 22.6611 30.0316 24.7708 30.0316Z" stroke="#5D00FF" stroke-width="2" stroke-miterlimit="10"/>
<path d="M40.0508 33.8519C42.1605 33.8519 43.8708 32.1416 43.8708 30.0319C43.8708 27.9222 42.1605 26.2119 40.0508 26.2119C37.9411 26.2119 36.2308 27.9222 36.2308 30.0319C36.2308 32.1416 37.9411 33.8519 40.0508 33.8519Z" stroke="#5D00FF" stroke-width="2" stroke-miterlimit="10"/>
<path d="M3.77081 45.2923V43.3923C3.7708 41.8735 4.37281 40.4165 5.44494 39.3406C6.51708 38.2647 7.97194 37.6576 9.49081 37.6523C11.0132 37.6523 12.4731 38.2571 13.5496 39.3335C14.6261 40.41 15.2308 41.87 15.2308 43.3923V45.2923" stroke="#5D00FF" stroke-width="2" stroke-miterlimit="10"/>
<path d="M34.3108 45.2923V43.3923C34.3108 41.87 34.9156 40.41 35.992 39.3335C37.0685 38.2571 38.5285 37.6523 40.0508 37.6523C41.5697 37.6576 43.0246 38.2647 44.0967 39.3406C45.1688 40.4165 45.7708 41.8735 45.7708 43.3923V45.2923" stroke="#5D00FF" stroke-width="2" stroke-miterlimit="10"/>
<path d="M9.49081 33.8519C11.6005 33.8519 13.3108 32.1416 13.3108 30.0319C13.3108 27.9222 11.6005 26.2119 9.49081 26.2119C7.38108 26.2119 5.67081 27.9222 5.67081 30.0319C5.67081 32.1416 7.38108 33.8519 9.49081 33.8519Z" stroke="#5D00FF" stroke-width="2" stroke-miterlimit="10"/>
<path d="M30.4908 39.5723V45.2923" stroke="#5D00FF" stroke-width="2" stroke-miterlimit="10"/>
<path d="M24.7708 5.21191L25.6908 7.09191L27.7908 7.39191L26.2708 8.85191L26.6308 10.9319L24.7708 9.95191L22.9108 10.9319L23.2708 8.85191L21.7508 7.39191L23.8508 7.09191L24.7708 5.21191Z" stroke="#5D00FF" stroke-width="2" stroke-miterlimit="10"/>
<path d="M40.0508 10.9316L40.9708 12.8116L43.0508 13.1116L41.5508 14.5916L41.9108 16.6716L40.0508 15.6716L38.1908 16.6716L38.5308 14.5916L37.0308 13.1116L39.1108 12.8116L40.0508 10.9316Z" stroke="#5D00FF" stroke-width="2" stroke-miterlimit="10"/>
<path d="M9.49081 10.9316L10.4308 12.8116L12.5108 13.1116L11.0108 14.5916L11.3508 16.6716L9.49081 15.6716L7.63081 16.6716L7.99081 14.5916L6.49081 13.1116L8.57081 12.8116L9.49081 10.9316Z" stroke="#5D00FF" stroke-width="2" stroke-miterlimit="10"/>
</svg>
