<svg width="73" height="73" viewBox="0 0 73 73" fill="none" xmlns="http://www.w3.org/2000/svg">
<path d="M8.42603 54.8144C9.44527 56.3906 10.6019 57.873 11.8849 59.2435C13.0668 60.5131 14.227 61.6204 15.3583 62.5149C17.5956 64.3435 19.5726 65.4832 20.9425 66.1901C21.6184 66.5652 22.1677 66.7889 22.5256 66.9656L23.0749 67.2217L23.6352 67.4525C24.0074 67.5968 24.546 67.8528 25.2797 68.0945C26.729 68.6247 28.9085 69.3136 31.771 69.7284C33.1987 69.9592 34.8035 70.0638 36.5456 70.0782C38.2913 70.0962 40.1816 69.9664 42.1731 69.6382C46.1489 68.9854 50.5728 67.521 54.8052 64.8556C56.9124 63.5211 58.9798 61.9089 60.8664 59.9829C62.7604 58.0641 64.4663 55.8279 65.9265 53.3609C66.1181 53.058 66.2843 52.7334 66.4578 52.416C66.6277 52.095 66.8084 51.774 66.9747 51.453L67.4373 50.4791L67.6686 49.9922C67.7554 49.8011 67.8132 49.646 67.8855 49.4729L68.3048 48.4485C68.4421 48.1059 68.5541 47.7488 68.6843 47.399C68.9481 46.7029 69.1433 45.9779 69.3601 45.2566C69.7505 43.803 70.0866 42.3135 70.2818 40.7842C70.4047 40.0232 70.4553 39.2513 70.5276 38.4795C70.5565 38.0936 70.5637 37.704 70.5818 37.3145L70.6071 36.7302L70.6035 36.1423C70.5999 33.008 70.1408 29.8269 69.2481 26.7323C68.7999 25.185 68.2252 23.6666 67.5602 22.177C66.8879 20.6946 66.0892 19.2591 65.2145 17.8705C64.329 16.4855 63.3206 15.1727 62.2435 13.9175C61.1592 12.6696 59.9629 11.5118 58.7051 10.4262C57.4401 9.34415 56.0811 8.38115 54.6715 7.48668C53.2619 6.61024 51.7402 5.83839 50.2511 5.17475C48.6934 4.52193 47.1356 3.96288 45.52 3.53368C43.908 3.1189 42.2707 2.79069 40.6189 2.61035C38.9672 2.44083 37.3082 2.35788 35.6564 2.42641C34.0083 2.49854 32.3674 2.66806 30.7554 2.96742C29.147 3.2776 27.5603 3.67795 26.0242 4.20093C24.4918 4.73473 22.9954 5.34787 21.5641 6.07644C18.7052 7.53356 16.0812 9.36219 13.8042 11.483L13.3741 11.8761L12.9656 12.2945C12.6946 12.5722 12.4163 12.8391 12.1524 13.1204C11.6392 13.6975 11.1079 14.2529 10.638 14.8553C9.6549 16.0275 8.7983 17.279 7.99953 18.5414C7.62003 19.187 7.22607 19.8182 6.89355 20.4818C6.72367 20.81 6.53934 21.1346 6.38392 21.4664L5.9249 22.4547C5.849 22.6206 5.7731 22.7757 5.6972 22.956L5.4948 23.461L5.08999 24.4673C4.9671 24.8063 4.85506 25.1489 4.73579 25.4844C4.62013 25.8234 4.49724 26.1588 4.40327 26.5015C3.58643 29.2246 3.10211 31.9693 2.9756 34.6419C2.85272 37.2171 3.01536 39.7995 3.46715 42.3423C4.34905 47.2331 6.23574 51.4566 8.42603 54.8144ZM3.37318 34.6707C3.5286 32.0342 4.04183 29.3292 4.87675 26.6566C4.97072 26.3175 5.09722 25.9893 5.21649 25.6575C5.33577 25.3257 5.45143 24.9902 5.57793 24.6584L5.98996 23.6702L6.19598 23.176C6.26104 23.0246 6.34778 22.8514 6.42368 22.6891L6.88993 21.7045C7.04896 21.3763 7.22607 21.0661 7.39594 20.7451C7.72484 20.0995 8.11519 19.4791 8.49108 18.8479C9.28262 17.6108 10.132 16.3845 11.1042 15.2376C11.5705 14.6497 12.0946 14.1051 12.6006 13.5424C12.8608 13.2683 13.1355 13.005 13.403 12.7345L13.8078 12.3305L14.2307 11.9446C16.4788 9.87434 19.0666 8.09982 21.875 6.68958C23.281 5.98627 24.752 5.39476 26.2556 4.879C27.7627 4.37766 29.3169 3.99534 30.8928 3.69959C32.4722 3.41466 34.077 3.26317 35.689 3.19825C37.301 3.14415 38.9202 3.23432 40.5322 3.40744C42.1442 3.59499 43.7345 3.92321 45.3067 4.33438C46.8681 4.75997 48.4151 5.32623 49.8897 5.95381C51.4005 6.6427 52.8173 7.37847 54.198 8.2477C55.5606 9.12775 56.8762 10.0763 58.0979 11.1367C59.3123 12.2043 60.4653 13.3332 61.5098 14.5559C62.5471 15.7822 63.5121 17.0626 64.3615 18.4151C65.2 19.7713 65.9627 21.1671 66.606 22.6098C67.2349 24.0597 67.7879 25.5312 68.2144 27.0317C69.0638 30.0361 69.4939 33.1162 69.483 36.1459L69.4866 36.7122L69.465 37.2784C69.4469 37.6535 69.4433 38.0322 69.418 38.4073C69.3493 39.1539 69.3059 39.9041 69.1867 40.6363C69.0059 42.1151 68.6806 43.5578 68.3084 44.968C68.0987 45.6677 67.9108 46.3674 67.6578 47.0455C67.5349 47.3845 67.4265 47.7272 67.2964 48.0626L66.8916 49.0581L66.6928 49.5414L66.4651 50.0319L66.0133 51.0093L65.5326 51.9399C65.3699 52.2464 65.2181 52.5566 65.0338 52.856C63.6495 55.2689 62.023 57.4654 60.2086 59.359C58.387 61.2489 56.4317 62.89 54.3968 64.2425C50.3234 66.9512 46.0079 68.5021 42.0972 69.2378C38.172 69.9953 34.6372 69.8943 31.7963 69.512C28.9446 69.1368 26.7688 68.4768 25.3194 67.9683C24.5857 67.7338 24.0472 67.4886 23.6749 67.3479L23.1147 67.1243L22.5689 66.8682C22.2111 66.6915 21.6617 66.4679 20.9895 66.0928C19.6269 65.3858 17.6534 64.2497 15.4234 62.4283C13.2006 60.6177 10.7031 58.1074 8.55976 54.7243C6.41284 51.3628 4.58037 47.1429 3.77076 42.2918C3.3515 39.7779 3.21777 37.2207 3.37318 34.6707Z" fill="url(#paint0_linear_7213_33)"/>
<path d="M44.4017 28.0207C44.4017 28.0207 44.3316 28.0433 44.2005 28.0884C44.1372 28.111 44.0513 28.1268 43.9631 28.1696C43.875 28.2125 43.7755 28.2554 43.667 28.3005C43.5585 28.3546 43.4387 28.4223 43.3121 28.4922C43.1877 28.5689 43.0543 28.6524 42.9097 28.7404C42.7718 28.8351 42.6248 28.9367 42.4688 29.0427C42.3174 29.16 42.1569 29.2705 41.9941 29.4014C41.6663 29.6586 41.3181 29.9383 40.9542 30.2519C40.588 30.5587 40.2059 30.8948 39.808 31.2377C39.4124 31.5851 39.001 31.9438 38.576 32.307C38.1555 32.6725 37.7169 33.0357 37.2783 33.4011C36.8307 33.7598 36.3876 34.1208 35.931 34.4614C35.4811 34.8066 35.0199 35.1292 34.5678 35.4337C34.1111 35.736 33.659 36.0157 33.2137 36.2594C32.7728 36.5075 32.332 36.7128 31.9183 36.8865C31.7103 36.97 31.5046 37.0422 31.3124 37.1121C31.1112 37.1685 30.9281 37.2294 30.7473 37.27C30.5642 37.3039 30.3991 37.3467 30.2386 37.3648C30.0781 37.3806 29.9334 37.3964 29.8023 37.4031C29.5355 37.4076 29.3321 37.3896 29.1942 37.3603C29.0563 37.3377 28.9862 37.3219 28.9862 37.3219C28.9862 37.3219 29.0563 37.2994 29.1874 37.2542C29.2507 37.2317 29.3298 37.2159 29.418 37.173C29.5062 37.1302 29.6079 37.0873 29.7187 37.0422C29.8294 36.988 29.947 36.9204 30.0736 36.8527C30.1979 36.776 30.3313 36.6948 30.476 36.6068C30.6139 36.512 30.7631 36.4105 30.9168 36.3045C31.0683 36.1872 31.2288 36.0766 31.3916 35.9481C31.7194 35.6909 32.0698 35.4111 32.4337 35.0998C32.8 34.7953 33.182 34.4569 33.5799 34.1163C33.9778 33.7688 34.3869 33.4101 34.8119 33.0492C35.2324 32.6837 35.6733 32.3205 36.1096 31.9551C36.5549 31.5964 37.0003 31.2354 37.4547 30.8948C37.9045 30.5496 38.3657 30.2248 38.8179 29.9202C39.2745 29.6179 39.7244 29.3382 40.1697 29.0923C40.6106 28.8442 41.0514 28.6366 41.4628 28.4629C41.6708 28.3772 41.8765 28.305 42.0664 28.2373C42.2654 28.1787 42.4507 28.12 42.6293 28.0771C42.8124 28.0411 42.9775 28.0004 43.138 27.9824C43.3008 27.9666 43.4432 27.9508 43.5766 27.944C43.8524 27.9373 44.0513 27.9553 44.1847 27.9847C44.3294 28.0072 44.4017 28.0207 44.4017 28.0207Z" fill="url(#paint1_linear_7213_33)"/>
<path d="M37.1743 34.168C37.1743 34.168 37.4433 34.283 37.9158 34.4861C38.1509 34.5853 38.4358 34.7049 38.7613 34.8425C39.0891 34.9734 39.4531 35.1313 39.8577 35.2847C40.2601 35.4358 40.6919 35.6095 41.1554 35.7584C41.6165 35.9118 42.1048 36.0652 42.609 36.187C43.1131 36.3111 43.633 36.4059 44.1462 36.4329C44.6503 36.4623 45.1273 36.4014 45.6043 36.2412C45.8417 36.1622 46.0746 36.063 46.3006 35.9434C46.5244 35.8193 46.7415 35.6795 46.9472 35.5193C47.3564 35.1989 47.7113 34.8042 47.9803 34.362C48.2448 33.9198 48.4257 33.4326 48.5048 32.952C48.5907 32.476 48.5794 31.9933 48.5319 31.5714C48.4822 31.1405 48.3714 30.7548 48.2335 30.4299C48.0956 30.1051 47.9374 29.8344 47.7882 29.6291C47.6389 29.4215 47.5033 29.2749 47.4038 29.1801C47.3044 29.0854 47.2478 29.0403 47.2478 29.0403C47.2478 29.0403 47.3066 29.0831 47.4061 29.1756C47.5078 29.2681 47.6502 29.4103 47.8085 29.611C47.9667 29.8118 48.1476 30.069 48.3081 30.3916C48.4686 30.7142 48.6201 31.0977 48.7128 31.5376C48.758 31.7564 48.8009 31.9978 48.8145 32.2302C48.819 32.2888 48.8258 32.3497 48.8303 32.4084C48.8348 32.4783 48.8348 32.5347 48.8394 32.6001C48.8461 32.7265 48.8416 32.855 48.8371 32.9859C48.81 33.507 48.7128 34.0642 48.507 34.6147C48.3036 35.1651 47.9939 35.7088 47.5711 36.1825C47.3631 36.4217 47.1235 36.6405 46.8613 36.8322C46.6013 37.0262 46.3142 37.1909 46.0067 37.3195C45.4009 37.5812 44.6978 37.6782 44.0648 37.6105C43.4364 37.5586 42.8531 37.4143 42.3106 37.2383C41.768 37.0623 41.2661 36.848 40.8027 36.6224C40.3438 36.3923 39.9165 36.1667 39.539 35.9299C39.1614 35.6953 38.8178 35.4764 38.5285 35.2621C38.2368 35.0523 37.9859 34.8628 37.787 34.6959C37.3846 34.38 37.1743 34.168 37.1743 34.168Z" fill="url(#paint2_linear_7213_33)"/>
<path d="M36.261 30.9466C36.261 30.9466 35.992 30.8315 35.5195 30.6285C35.2844 30.5292 34.9996 30.4096 34.674 30.272C34.3462 30.1412 33.9823 29.9833 33.5776 29.8299C33.1752 29.6787 32.7434 29.505 32.28 29.3561C31.8188 29.2027 31.3305 29.0493 30.8264 28.9275C30.3223 28.8034 29.8023 28.7087 29.2891 28.6816C28.785 28.6523 28.308 28.7132 27.831 28.8734C27.5936 28.9523 27.3608 29.0516 27.1347 29.1711C26.9109 29.2952 26.6939 29.4351 26.4882 29.5953C26.079 29.9156 25.7241 30.3104 25.455 30.7525C25.1905 31.1947 25.0097 31.6797 24.9306 32.1625C24.8447 32.6385 24.856 33.1213 24.9034 33.5431C24.9532 33.974 25.0639 34.3598 25.2018 34.6846C25.3397 35.0095 25.498 35.2802 25.6472 35.4855C25.7964 35.693 25.932 35.8396 26.0315 35.9344C26.131 36.0291 26.1875 36.0743 26.1875 36.0743C26.1875 36.0743 26.1287 36.0314 26.0293 35.9389C25.9275 35.8464 25.7851 35.7043 25.6269 35.5035C25.4686 35.3005 25.2878 35.0456 25.1272 34.723C24.9667 34.4004 24.8153 34.0169 24.7226 33.577C24.6774 33.3581 24.6344 33.1167 24.6209 32.8844C24.6163 32.8257 24.6096 32.7648 24.605 32.7062C24.6005 32.6362 24.6005 32.5798 24.596 32.5144C24.5892 32.3881 24.5937 32.2595 24.5982 32.1287C24.6254 31.6075 24.7226 31.0503 24.9283 30.4999C25.1318 29.9494 25.4415 29.4058 25.8642 28.932C26.0722 28.6929 26.3118 28.4741 26.5741 28.2823C26.8363 28.0883 27.1234 27.9236 27.4286 27.795C28.0345 27.5333 28.7375 27.4363 29.3705 27.504C29.999 27.5559 30.5822 27.7003 31.1248 27.8762C31.6674 28.0522 32.1692 28.2665 32.6327 28.4921C33.0916 28.7222 33.5188 28.9478 33.8964 29.1847C34.2739 29.4215 34.6175 29.6381 34.9069 29.8524C35.1985 30.0622 35.4495 30.2517 35.6484 30.4164C36.0508 30.7345 36.261 30.9466 36.261 30.9466Z" fill="url(#paint3_linear_7213_33)"/>
<path d="M15.4984 44.9766H15.0624L16.3815 42.0887C16.3927 42.0565 16.4171 42.0265 16.4572 41.9965C16.495 41.9677 16.5395 41.9521 16.5929 41.9521C16.6618 41.9521 16.7119 41.9644 16.7408 41.9877C16.7697 42.0165 16.7942 42.0498 16.8131 42.0876L18.1044 44.9755H17.6684L17.1523 43.839H16.0212L15.4984 44.9766ZM16.178 43.5049H17.0055L16.594 42.587L16.178 43.5049ZM22.1662 43.6725H20.2154V44.6137H22.2897V44.9766H20.0508C19.9762 44.9766 19.9184 44.9522 19.8784 44.9045C19.8383 44.859 19.8183 44.8146 19.8183 44.769V42.2163C19.8183 42.1708 19.8383 42.1242 19.8784 42.0765C19.9162 42.031 19.9729 42.0088 20.0508 42.0088H22.2897V42.3672H20.2154V43.3084H22.1662V43.6725ZM25.3205 44.9766V42.3672H24.1649V42.0088H26.8754V42.3672H25.7198V44.9766H25.3205ZM31.1007 43.6725H29.1499V44.6137H31.2242V44.9766H28.9853C28.9108 44.9766 28.8529 44.9522 28.8129 44.9045C28.7728 44.859 28.7528 44.8146 28.7528 44.769V42.2163C28.7528 42.1708 28.7728 42.1242 28.8129 42.0765C28.8507 42.031 28.9074 42.0088 28.9853 42.0088H31.2242V42.3672H29.1499V43.3084H31.1007V43.6725ZM35.2816 44.9766L34.4696 43.88H33.5776V44.9766H33.1817V42.2163C33.1817 42.1708 33.2017 42.1242 33.2418 42.0765C33.2796 42.031 33.3363 42.0088 33.4141 42.0088H34.6265C34.7599 42.0088 34.889 42.0332 35.0146 42.0809C35.137 42.1286 35.2449 42.1952 35.3383 42.2807C35.4317 42.3684 35.5062 42.4705 35.5619 42.5881C35.6152 42.708 35.6419 42.8356 35.6419 42.971C35.6419 43.0587 35.6275 43.1508 35.5974 43.2463C35.563 43.3451 35.5174 43.4294 35.4618 43.5016C35.4028 43.5781 35.3272 43.6481 35.2337 43.7091C35.1381 43.7735 35.028 43.8179 34.9056 43.8445L35.7576 44.9777L35.2816 44.9766ZM33.5788 42.3684V43.5215H34.6265C34.7221 43.5215 34.8089 43.506 34.8867 43.4738C34.959 43.4472 35.0224 43.4061 35.0791 43.3506C35.1303 43.3029 35.1681 43.2441 35.1948 43.1752C35.2215 43.1142 35.2349 43.0465 35.2349 42.9721C35.2349 42.9 35.2215 42.8301 35.1948 42.7613C35.1659 42.6869 35.127 42.6214 35.0791 42.5659C35.0258 42.5071 34.9624 42.4605 34.8867 42.4261C34.8067 42.3883 34.7199 42.3706 34.6265 42.3706L33.5788 42.3684ZM39.855 44.9211L38.0121 42.6236V44.9777H37.6161V42.1697C37.6161 42.122 37.635 42.0731 37.6717 42.0221C37.7096 41.9766 37.7707 41.9544 37.8553 41.9544C37.9009 41.9544 37.942 41.9621 37.9787 41.9788C38.0132 41.9999 38.0399 42.0243 38.0588 42.0509L39.894 44.3606V42.011H40.2933V44.8035C40.2933 44.849 40.2744 44.8967 40.2376 44.9466C40.2032 44.9977 40.142 45.0221 40.0541 45.0221C40.0007 45.0221 39.9607 45.0132 39.934 44.9944C39.8951 44.9611 39.8684 44.9366 39.855 44.9211ZM42.4454 44.9766H42.0094L43.3285 42.0887C43.3396 42.0565 43.3641 42.0265 43.4042 41.9965C43.442 41.9677 43.4865 41.9521 43.5398 41.9521C43.6088 41.9521 43.6588 41.9644 43.6878 41.9877C43.7167 42.0165 43.7412 42.0498 43.7601 42.0876L45.0514 44.9755H44.6154L44.0993 43.839H42.9682L42.4454 44.9766ZM43.125 43.5049H43.9525L43.541 42.587L43.125 43.5049ZM46.7264 42.3684V42.0099H49.1566C49.2367 42.0099 49.2956 42.0321 49.3323 42.0776C49.3668 42.1231 49.3846 42.1697 49.3846 42.2174C49.3846 42.2363 49.3824 42.2585 49.3768 42.2851C49.3712 42.304 49.3579 42.3251 49.3368 42.3495L47.278 44.6159H49.3723V44.9788H46.9143C46.8343 44.9788 46.7775 44.9544 46.7419 44.9067C46.7019 44.8589 46.6819 44.8123 46.6819 44.7668C46.6819 44.7191 46.6997 44.678 46.7342 44.6436L48.7929 42.3695L46.7264 42.3684ZM53.6099 43.6725H51.6591V44.6137H53.7345V44.9766H51.4956C51.4211 44.9766 51.3632 44.9522 51.3232 44.9045C51.2832 44.859 51.2631 44.8146 51.2631 44.769V42.2163C51.2631 42.1708 51.2832 42.1242 51.3232 42.0765C51.361 42.031 51.4177 42.0088 51.4956 42.0088H53.7345V42.3672H51.6602V43.3084H53.611V43.6725H53.6099ZM57.932 44.9211L56.0891 42.6236V44.9777H55.6931V42.1697C55.6931 42.122 55.712 42.0731 55.7487 42.0221C55.7866 41.9766 55.8477 41.9544 55.9323 41.9544C55.9779 41.9544 56.019 41.9621 56.0557 41.9788C56.0902 41.9999 56.1169 42.0243 56.1358 42.0509L57.971 44.3606V42.011H58.3702V44.8035C58.3702 44.849 58.3513 44.8967 58.3146 44.9466C58.2802 44.9977 58.219 45.0221 58.1311 45.0221C58.0777 45.0221 58.0377 45.0132 58.011 44.9944C57.9721 44.9611 57.9454 44.9366 57.932 44.9211Z" fill="url(#paint4_linear_7213_33)"/>
<defs>
<linearGradient id="paint0_linear_7213_33" x1="2.95495" y1="36.2397" x2="175.929" y2="36.2397" gradientUnits="userSpaceOnUse">
<stop stop-color="#616161"/>
<stop offset="0.5" stop-color="#E6E7E8"/>
<stop offset="1" stop-color="#616161"/>
</linearGradient>
<linearGradient id="paint1_linear_7213_33" x1="28.9846" y1="32.6728" x2="44.4002" y2="32.6728" gradientUnits="userSpaceOnUse">
<stop stop-color="#616161"/>
<stop offset="0.5" stop-color="#E6E7E8"/>
<stop offset="1" stop-color="#616161"/>
</linearGradient>
<linearGradient id="paint2_linear_7213_33" x1="37.1748" y1="33.3354" x2="48.8433" y2="33.3354" gradientUnits="userSpaceOnUse">
<stop stop-color="#2F0080"/>
<stop offset="0.5" stop-color="#7F33FF"/>
<stop offset="1" stop-color="#2F0080"/>
</linearGradient>
<linearGradient id="paint3_linear_7213_33" x1="24.5915" y1="31.7791" x2="36.26" y2="31.7791" gradientUnits="userSpaceOnUse">
<stop stop-color="#2F0080"/>
<stop offset="0.5" stop-color="#7D33FF"/>
<stop offset="1" stop-color="#2F0080"/>
</linearGradient>
<linearGradient id="paint4_linear_7213_33" x1="15.0636" y1="43.4869" x2="25.5467" y2="43.4869" gradientUnits="userSpaceOnUse">
<stop stop-color="#808080"/>
<stop offset="0.5" stop-color="#E6E7E8"/>
<stop offset="1" stop-color="#808080"/>
</linearGradient>
</defs>
</svg>
