<svg width="25" height="25" viewBox="0 0 25 25" fill="none" xmlns="http://www.w3.org/2000/svg">
<g clip-path="url(#clip0_5240_15062)">
<path d="M6.57081 13.248H7.05081V21.838H6.57081C6.00613 21.838 5.44697 21.7268 4.92527 21.5107C4.40357 21.2946 3.92955 20.9779 3.53025 20.5786C3.13096 20.1793 2.81423 19.7053 2.59813 19.1836C2.38204 18.6619 2.27081 18.1027 2.27081 17.538C2.27346 16.3994 2.72766 15.3082 3.53378 14.504C4.3399 13.6997 5.43211 13.248 6.57081 13.248Z" stroke="#5D00FF" stroke-width="2" stroke-miterlimit="10"/>
<path d="M18.5008 13.248H18.9808C20.1212 13.248 21.2149 13.7011 22.0214 14.5075C22.8278 15.3139 23.2808 16.4076 23.2808 17.548C23.2808 18.6885 22.8278 19.7822 22.0214 20.5886C21.2149 21.395 20.1212 21.848 18.9808 21.848H18.5008V13.248Z" stroke="#5D00FF" stroke-width="2" stroke-miterlimit="10"/>
<path d="M4.18079 14.158V11.298C4.18078 9.01887 5.08548 6.83294 6.69613 5.22041C8.30678 3.60789 10.4917 2.70065 12.7708 2.698C15.0499 2.70065 17.2348 3.60789 18.8454 5.22041C20.4561 6.83294 21.3608 9.01887 21.3608 11.298V14.158" stroke="#5D00FF" stroke-width="2" stroke-miterlimit="10"/>
</g>
<defs>
<clipPath id="clip0_5240_15062">
<rect width="24" height="24" fill="white" transform="translate(0.770813 0.248047)"/>
</clipPath>
</defs>
</svg>
