<svg width="49" height="49" viewBox="0 0 49 49" fill="none" xmlns="http://www.w3.org/2000/svg">
<path d="M24.7708 8.97172V41.4317C24.7656 42.4432 24.3614 43.4118 23.6462 44.1271C22.9309 44.8423 21.9623 45.2465 20.9508 45.2517C19.9409 45.2413 18.9753 44.8355 18.2612 44.1214C17.547 43.4072 17.1412 42.4416 17.1308 41.4317C16.8116 41.4631 16.49 41.4631 16.1708 41.4317C14.4008 41.4264 12.7048 40.721 11.4532 39.4694C10.2016 38.2178 9.49609 36.5217 9.49082 34.7517C9.49229 34.2806 9.54596 33.811 9.65082 33.3517C8.08942 32.8336 6.70988 31.8776 5.67657 30.5975C4.64327 29.3174 3.99975 27.7672 3.82271 26.1317C3.64566 24.4961 3.94255 22.8441 4.678 21.3726C5.41345 19.901 6.55645 18.6719 7.97082 17.8317C7.72009 17.1322 7.59155 16.3948 7.59082 15.6517C7.59338 14.0482 8.17264 12.4992 9.22281 11.2874C10.273 10.0757 11.724 9.28216 13.3108 9.05172C13.3972 7.59055 14.0385 6.21758 15.1036 5.21357C16.1687 4.20957 17.5771 3.65039 19.0408 3.65039C20.5045 3.65039 21.913 4.20957 22.9781 5.21357C24.0432 6.21758 24.6845 7.59055 24.7708 9.05172V8.97172Z" stroke="#5D00FF" stroke-width="2" stroke-miterlimit="10"/>
<path d="M14.2708 22.3517C12.5598 22.2581 10.9496 21.5125 9.77147 20.2681C8.59332 19.0238 7.93674 17.3753 7.93674 15.6617C7.93674 13.9481 8.59332 12.2996 9.77147 11.0553C10.9496 9.8109 12.5598 9.06527 14.2708 8.97168" stroke="#5D00FF" stroke-width="2" stroke-miterlimit="10"/>
<path d="M17.1308 28.0713C18.1341 28.0713 19.1276 28.2689 20.0545 28.6528C20.9814 29.0368 21.8237 29.5996 22.5331 30.309C23.2425 31.0184 23.8053 31.8607 24.1893 32.7876C24.5732 33.7145 24.7708 34.708 24.7708 35.7113" stroke="#5D00FF" stroke-width="2" stroke-miterlimit="10"/>
<path d="M19.0508 14.7117C19.8037 14.7117 20.5491 14.5631 21.2444 14.2744C21.9397 13.9857 22.5711 13.5625 23.1025 13.0293C23.634 12.496 24.0549 11.8631 24.3412 11.1668C24.6274 10.4705 24.7734 9.72452 24.7708 8.97168" stroke="#5D00FF" stroke-width="2" stroke-miterlimit="10"/>
<path d="M24.7708 8.97172V41.4317C24.7761 42.4432 25.1802 43.4118 25.8955 44.1271C26.6107 44.8423 27.5793 45.2465 28.5908 45.2517C29.6007 45.2413 30.5663 44.8355 31.2805 44.1214C31.9946 43.4072 32.4004 42.4416 32.4108 41.4317C32.73 41.4631 33.0516 41.4631 33.3708 41.4317C35.1408 41.4264 36.8369 40.721 38.0885 39.4694C39.3401 38.2178 40.0455 36.5217 40.0508 34.7517C40.0493 34.2806 39.9957 33.811 39.8908 33.3517C41.4522 32.8336 42.8317 31.8776 43.8651 30.5975C44.8984 29.3174 45.5419 27.7672 45.7189 26.1317C45.896 24.4961 45.5991 22.8441 44.8636 21.3726C44.1282 19.901 42.9852 18.6719 41.5708 17.8317C41.8215 17.1322 41.9501 16.3948 41.9508 15.6517C41.9483 14.0482 41.369 12.4992 40.3188 11.2874C39.2687 10.0757 37.8177 9.28216 36.2308 9.05172C36.1444 7.59055 35.5031 6.21758 34.438 5.21357C33.3729 4.20957 31.9645 3.65039 30.5008 3.65039C29.0371 3.65039 27.6287 4.20957 26.5636 5.21357C25.4985 6.21758 24.8572 7.59055 24.7708 9.05172V8.97172Z" stroke="#5D00FF" stroke-width="2" stroke-miterlimit="10"/>
<path d="M35.2708 22.3517C36.9819 22.2581 38.592 21.5125 39.7702 20.2681C40.9483 19.0238 41.6049 17.3753 41.6049 15.6617C41.6049 13.9481 40.9483 12.2996 39.7702 11.0553C38.592 9.8109 36.9819 9.06527 35.2708 8.97168" stroke="#5D00FF" stroke-width="2" stroke-miterlimit="10"/>
<path d="M32.4108 28.0713C30.3846 28.0713 28.4413 28.8762 27.0085 30.309C25.5757 31.7418 24.7708 33.685 24.7708 35.7113" stroke="#5D00FF" stroke-width="2" stroke-miterlimit="10"/>
<path d="M30.4908 14.7117C29.738 14.7117 28.9925 14.5631 28.2972 14.2744C27.6019 13.9857 26.9705 13.5625 26.4391 13.0293C25.9077 12.496 25.4868 11.8631 25.2005 11.1668C24.9142 10.4705 24.7682 9.72452 24.7708 8.97168" stroke="#5D00FF" stroke-width="2" stroke-miterlimit="10"/>
</svg>
