<svg width="49" height="49" viewBox="0 0 49 49" fill="none" xmlns="http://www.w3.org/2000/svg">
<path d="M34.3308 47.2517C34.3361 45.731 34.9425 44.2741 36.0178 43.1987C37.0932 42.1234 38.5501 41.517 40.0708 41.5117C41.5932 41.5117 43.0531 42.1165 44.1296 43.1929C45.2061 44.2694 45.8108 45.7294 45.8108 47.2517" stroke="#5D00FF" stroke-width="2" stroke-miterlimit="10"/>
<path d="M40.0708 37.6722C42.1805 37.6722 43.8908 35.962 43.8908 33.8522C43.8908 31.7425 42.1805 30.0322 40.0708 30.0322C37.9611 30.0322 36.2508 31.7425 36.2508 33.8522C36.2508 35.962 37.9611 37.6722 40.0708 37.6722Z" stroke="#5D00FF" stroke-width="2" stroke-miterlimit="10"/>
<path d="M3.73081 47.2517C3.73081 45.7294 4.33556 44.2694 5.41202 43.1929C6.48848 42.1165 7.94847 41.5117 9.47081 41.5117C10.9915 41.517 12.4485 42.1234 13.5238 43.1987C14.5991 44.2741 15.2055 45.731 15.2108 47.2517" stroke="#5D00FF" stroke-width="2" stroke-miterlimit="10"/>
<path d="M9.47081 37.6722C11.5805 37.6722 13.2908 35.962 13.2908 33.8522C13.2908 31.7425 11.5805 30.0322 9.47081 30.0322C7.36108 30.0322 5.65081 31.7425 5.65081 33.8522C5.65081 35.962 7.36108 37.6722 9.47081 37.6722Z" stroke="#5D00FF" stroke-width="2" stroke-miterlimit="10"/>
<path d="M34.3308 14.732C34.3248 14.2687 34.278 13.8069 34.1908 13.352L36.1908 11.472L33.2708 6.51195L30.7708 7.25195C30.0524 6.66821 29.2501 6.19623 28.3908 5.85195L27.7308 3.25195H21.9108L21.2508 5.85195C20.3916 6.19623 19.5892 6.66821 18.8708 7.25195L16.2708 6.51195L13.3908 11.472L15.3908 13.352C15.3037 13.8069 15.2568 14.2687 15.2508 14.732C15.2567 15.1886 15.3036 15.6437 15.3908 16.092L13.3908 17.992L16.2708 22.952L18.8708 22.252C19.5941 22.8286 20.3954 23.2999 21.2508 23.652L21.9108 26.252H27.6308L28.2908 23.652C29.1812 23.3085 30.0167 22.8369 30.7708 22.252L33.3708 22.992L36.2508 18.032L34.2508 16.132C34.3203 15.6687 34.3471 15.2001 34.3308 14.732Z" stroke="#5D00FF" stroke-width="2" stroke-miterlimit="10"/>
<path d="M24.7708 16.6515C25.8312 16.6515 26.6908 15.7919 26.6908 14.7315C26.6908 13.6711 25.8312 12.8115 24.7708 12.8115C23.7104 12.8115 22.8508 13.6711 22.8508 14.7315C22.8508 15.7919 23.7104 16.6515 24.7708 16.6515Z" stroke="#5D00FF" stroke-width="2" stroke-miterlimit="10"/>
</svg>
