<svg width="49" height="49" viewBox="0 0 49 49" fill="none" xmlns="http://www.w3.org/2000/svg">
<path d="M20.9508 31.8923L24.7708 28.0723L28.5908 31.8923" stroke="#5D00FF" stroke-width="2" stroke-miterlimit="10" stroke-linecap="square"/>
<path d="M24.7708 24.252V28.072" stroke="#5D00FF" stroke-width="2" stroke-miterlimit="10" stroke-linecap="square"/>
<path d="M24.7708 10.8916C26.2878 10.8916 27.7428 11.4942 28.8155 12.567C29.8882 13.6397 30.4908 15.0946 30.4908 16.6116V18.6116H19.0508V16.6116C19.0508 15.0946 19.6535 13.6397 20.7262 12.567C21.7989 11.4942 23.2538 10.8916 24.7708 10.8916Z" stroke="#5D00FF" stroke-width="2" stroke-miterlimit="10" stroke-linecap="square"/>
<path d="M24.7708 10.892C26.8805 10.892 28.5908 9.18168 28.5908 7.07195C28.5908 4.96223 26.8805 3.25195 24.7708 3.25195C22.6611 3.25195 20.9508 4.96223 20.9508 7.07195C20.9508 9.18168 22.6611 10.892 24.7708 10.892Z" stroke="#5D00FF" stroke-width="2" stroke-miterlimit="10" stroke-linecap="square"/>
<path d="M40.0508 37.6123C41.5679 37.6123 43.0228 38.215 44.0955 39.2877C45.1682 40.3604 45.7708 41.8153 45.7708 43.3323V45.3323H34.3108V43.3323C34.3108 42.5795 34.4594 41.834 34.7481 41.1388C35.0368 40.4435 35.46 39.812 35.9932 39.2806C36.5265 38.7492 37.1594 38.3283 37.8557 38.042C38.552 37.7557 39.298 37.6097 40.0508 37.6123Z" stroke="#5D00FF" stroke-width="2" stroke-miterlimit="10" stroke-linecap="square"/>
<path d="M40.0508 37.6117C42.1605 37.6117 43.8708 35.9014 43.8708 33.7917C43.8708 31.682 42.1605 29.9717 40.0508 29.9717C37.9411 29.9717 36.2308 31.682 36.2308 33.7917C36.2308 35.9014 37.9411 37.6117 40.0508 37.6117Z" stroke="#5D00FF" stroke-width="2" stroke-miterlimit="10" stroke-linecap="square"/>
<path d="M9.49081 37.6123C10.242 37.6123 10.9858 37.7603 11.6798 38.0477C12.3737 38.3352 13.0043 38.7565 13.5355 39.2877C14.0666 39.8188 14.4879 40.4494 14.7754 41.1434C15.0629 41.8373 15.2108 42.5811 15.2108 43.3323V45.3323H3.77081V43.3323C3.77081 41.8153 4.37345 40.3604 5.44616 39.2877C6.51887 38.2149 7.97377 37.6123 9.49081 37.6123Z" stroke="#5D00FF" stroke-width="2" stroke-miterlimit="10" stroke-linecap="square"/>
<path d="M9.49081 37.6117C11.6005 37.6117 13.3108 35.9014 13.3108 33.7917C13.3108 31.682 11.6005 29.9717 9.49081 29.9717C7.38108 29.9717 5.67081 31.682 5.67081 33.7917C5.67081 35.9014 7.38108 37.6117 9.49081 37.6117Z" stroke="#5D00FF" stroke-width="2" stroke-miterlimit="10" stroke-linecap="square"/>
</svg>
