<svg width="25" height="25" viewBox="0 0 25 25" fill="none" xmlns="http://www.w3.org/2000/svg">
<path d="M12.7802 2.26709C7.28525 2.26709 2.78925 6.76309 2.78925 12.2581C2.78925 17.7521 7.28525 22.2481 12.7802 22.2481C18.2742 22.2481 22.7702 17.7521 22.7702 12.2581C22.7702 6.76309 18.3242 2.26709 12.7802 2.26709ZM17.3752 16.7031C17.1762 17.0021 16.8262 17.1031 16.5252 16.9041C14.1762 15.4541 11.2292 15.1541 7.73225 15.9531C7.38425 16.0551 7.08425 15.8051 6.98425 15.5041C6.88325 15.1541 7.13325 14.8561 7.43425 14.7551C11.2292 13.9051 14.5272 14.2561 17.1242 15.8551C17.4742 16.0041 17.5242 16.4031 17.3752 16.7031ZM18.5752 13.9561C18.3242 14.3051 17.8752 14.4551 17.5242 14.2051C14.8272 12.5591 10.7322 12.0571 7.58525 13.0571C7.18725 13.1581 6.73525 12.9571 6.63625 12.5591C6.53525 12.1571 6.73625 11.7071 7.13525 11.6071C10.7812 10.5091 15.2782 11.0591 18.3742 12.9581C18.6742 13.1071 18.8242 13.6061 18.5752 13.9561ZM18.6742 11.1571C15.4772 9.26009 10.1322 9.06009 7.08425 10.0111C6.85245 10.0779 6.60383 10.0528 6.39005 9.94107C6.17626 9.82933 6.01374 9.63953 5.93625 9.41109C5.86827 9.17902 5.89264 8.92965 6.00428 8.71513C6.11592 8.50062 6.30617 8.33757 6.53525 8.26009C10.0822 7.21109 15.9272 7.41009 19.6242 9.61109C20.0732 9.86009 20.2232 10.4601 19.9732 10.9091C19.7232 11.2591 19.1242 11.4071 18.6742 11.1571Z" fill="#5D00FF"/>
</svg>
