<svg width="25" height="25" viewBox="0 0 25 25" fill="none" xmlns="http://www.w3.org/2000/svg">
<g clip-path="url(#clip0_5240_15088)">
<path d="M15.6308 9.38805V1.74805H9.91081V9.38805L2.68081 19.318C2.41226 19.6869 2.26861 20.1318 2.27081 20.588C2.27081 21.1609 2.49838 21.7103 2.90346 22.1154C3.30854 22.5205 3.85794 22.748 4.43081 22.748H21.1108C21.6837 22.748 22.2331 22.5205 22.6382 22.1154C23.0432 21.7103 23.2708 21.1609 23.2708 20.588C23.273 20.1318 23.1294 19.6869 22.8608 19.318L15.6308 9.38805Z" stroke="#5D00FF" stroke-width="2" stroke-miterlimit="10"/>
<path d="M8.00081 1.74805H17.5408" stroke="#5D00FF" stroke-width="2" stroke-miterlimit="10"/>
<path d="M10.8608 13.248H12.7708C13.6434 13.248 14.4802 13.5947 15.0972 14.2117C15.7142 14.8287 16.0608 15.6655 16.0608 16.538V18.448H14.1508C13.2782 18.448 12.4414 18.1014 11.8244 17.4844C11.2074 16.8674 10.8608 16.0306 10.8608 15.158V13.248Z" stroke="#5D00FF" stroke-width="2" stroke-miterlimit="10"/>
<path d="M17.5408 19.888L15.6308 17.978" stroke="#5D00FF" stroke-width="2" stroke-miterlimit="10"/>
</g>
<defs>
<clipPath id="clip0_5240_15088">
<rect width="24" height="24" fill="white" transform="translate(0.770813 0.248047)"/>
</clipPath>
</defs>
</svg>
