<svg width="49" height="49" viewBox="0 0 49 49" fill="none" xmlns="http://www.w3.org/2000/svg">
<path d="M30.4908 26.2516H28.5908L26.5908 22.4316L22.7908 30.0716L19.0508 20.4716L15.2308 26.2516H7.59082L6.93082 25.5916C5.92358 24.5883 5.12382 23.3965 4.5772 22.0841C4.03058 20.7717 3.7478 19.3645 3.74502 17.9428C3.73939 15.0717 4.87457 12.3158 6.90082 10.2816C8.92707 8.24742 11.6784 7.10145 14.5496 7.09583C17.4208 7.0902 20.1766 8.22538 22.2108 10.2516L24.7708 12.8516L27.3308 10.2516C28.3248 9.2128 29.5161 8.38289 30.8351 7.81056C32.154 7.23823 33.5739 6.935 35.0115 6.91867C36.4492 6.90233 37.8756 7.17321 39.2072 7.71541C40.5388 8.25762 41.7487 9.06024 42.766 10.0762C43.7833 11.0922 44.5875 12.3011 45.1315 13.6319C45.6754 14.9628 45.9482 16.3889 45.9337 17.8266C45.9193 19.2642 45.6179 20.6845 45.0473 22.0042C44.4767 23.3239 43.6483 24.5163 42.6108 25.5116L41.9508 26.1716L24.7708 43.3916L12.9108 31.5316" stroke="#5D00FF" stroke-width="2" stroke-miterlimit="10"/>
<path d="M32.4108 26.2119H36.2308" stroke="#5D00FF" stroke-width="2" stroke-miterlimit="10"/>
</svg>
