<svg width="25" height="25" viewBox="0 0 25 25" fill="none" xmlns="http://www.w3.org/2000/svg">
<path d="M19.7075 5.582C18.3775 4.962 16.9375 4.512 15.4375 4.252C15.4243 4.25158 15.4113 4.25405 15.3992 4.25923C15.3871 4.26441 15.3763 4.27219 15.3675 4.282C15.1875 4.612 14.9775 5.042 14.8375 5.372C13.2465 5.132 11.6285 5.132 10.0375 5.372C9.8975 5.032 9.6875 4.612 9.4975 4.282C9.4875 4.262 9.4575 4.252 9.4275 4.252C7.9275 4.512 6.4975 4.962 5.1575 5.582C5.1475 5.582 5.1375 5.592 5.1275 5.602C2.4075 9.672 1.6575 13.632 2.0275 17.552C2.0275 17.572 2.0375 17.592 2.0575 17.602C3.8575 18.922 5.5875 19.722 7.2975 20.252C7.3275 20.262 7.35749 20.252 7.3675 20.232C7.7675 19.682 8.1275 19.102 8.4375 18.492C8.4575 18.452 8.4375 18.412 8.3975 18.402C7.8275 18.182 7.2875 17.922 6.7575 17.622C6.7175 17.602 6.71749 17.542 6.7475 17.512C6.8575 17.432 6.96749 17.342 7.0775 17.262C7.0975 17.242 7.1275 17.242 7.1475 17.252C10.5875 18.822 14.2975 18.822 17.6975 17.252C17.7175 17.242 17.7475 17.242 17.7675 17.262C17.8775 17.352 17.9875 17.432 18.0975 17.522C18.1375 17.552 18.1375 17.612 18.0875 17.632C17.5675 17.942 17.0175 18.192 16.4475 18.412C16.4075 18.422 16.3975 18.472 16.4075 18.502C16.7275 19.112 17.0875 19.692 17.4775 20.242C17.5075 20.252 17.5375 20.262 17.5675 20.252C19.2875 19.722 21.0175 18.922 22.8175 17.602C22.8375 17.592 22.8475 17.572 22.8475 17.552C23.2875 13.022 22.1175 9.092 19.7475 5.602C19.7375 5.592 19.7275 5.582 19.7075 5.582ZM8.9575 15.162C7.9275 15.162 7.0675 14.212 7.0675 13.042C7.0675 11.872 7.9075 10.922 8.9575 10.922C10.0175 10.922 10.8575 11.882 10.8475 13.042C10.8475 14.212 10.0075 15.162 8.9575 15.162ZM15.9275 15.162C14.8975 15.162 14.0375 14.212 14.0375 13.042C14.0375 11.872 14.8775 10.922 15.9275 10.922C16.9875 10.922 17.8275 11.882 17.8175 13.042C17.8175 14.212 16.9875 15.162 15.9275 15.162Z" fill="#5D00FF"/>
</svg>
