<svg width="25" height="25" viewBox="0 0 25 25" fill="none" xmlns="http://www.w3.org/2000/svg">
<path d="M22.3632 7.45105C22.2493 7.02846 22.0267 6.64306 21.7176 6.33322C21.4085 6.02339 21.0236 5.79991 20.6012 5.68505C19.0352 5.25505 12.7702 5.24805 12.7702 5.24805C12.7702 5.24805 6.50623 5.24105 4.93923 5.65205C4.51715 5.7722 4.13305 5.99883 3.82379 6.31019C3.51454 6.62155 3.29051 7.00718 3.17323 7.43005C2.76023 8.99605 2.75623 12.2441 2.75623 12.2441C2.75623 12.2441 2.75223 15.5081 3.16223 17.0581C3.39223 17.9151 4.06723 18.5921 4.92523 18.8231C6.50723 19.2531 12.7552 19.2601 12.7552 19.2601C12.7552 19.2601 19.0202 19.2671 20.5862 18.8571C21.0087 18.7424 21.394 18.5194 21.7039 18.2102C22.0138 17.901 22.2376 17.5163 22.3532 17.0941C22.7672 15.5291 22.7702 12.2821 22.7702 12.2821C22.7702 12.2821 22.7902 9.01705 22.3632 7.45105ZM10.7662 15.2531L10.7712 9.25305L15.9782 12.2581L10.7662 15.2531Z" fill="#5D00FF"/>
</svg>
