<svg width="33" height="33" viewBox="0 0 33 33" fill="none" xmlns="http://www.w3.org/2000/svg">
<path d="M23.6062 22.6158L23.1347 23.0872C22.8744 23.3475 22.4523 23.3475 22.1919 23.0872L16.7708 17.666L11.3496 23.0871C11.0893 23.3475 10.6672 23.3475 10.4068 23.0871L9.93544 22.6157C9.67509 22.3554 9.67509 21.9333 9.93544 21.6729L15.3566 16.2518L9.93544 10.8306C9.67509 10.5703 9.67509 10.1482 9.93544 9.88786L10.4068 9.41646C10.6672 9.15611 11.0893 9.15611 11.3496 9.41646L16.7708 14.8376L22.1919 9.41645C22.4523 9.1561 22.8744 9.1561 23.1347 9.41645L23.6062 9.88785C23.8665 10.1482 23.8665 10.5703 23.6062 10.8306L18.185 16.2518L23.6062 21.6729C23.8665 21.9333 23.8665 22.3554 23.6062 22.6158Z" fill="black"/>
</svg>
