<svg width="25" height="25" viewBox="0 0 25 25" fill="none" xmlns="http://www.w3.org/2000/svg">
<path fill-rule="evenodd" clip-rule="evenodd" d="M16.7702 3.49072H8.77023C6.00881 3.49072 3.77023 5.7293 3.77023 8.49072V16.4907C3.77023 19.2521 6.00881 21.4907 8.77023 21.4907H16.7702C19.5316 21.4907 21.7702 19.2521 21.7702 16.4907V8.49072C21.7702 5.7293 19.5316 3.49072 16.7702 3.49072ZM20.0202 16.4907C20.0147 18.2833 18.5628 19.7352 16.7702 19.7407H8.77023C6.97758 19.7352 5.52572 18.2833 5.52023 16.4907V8.49072C5.52572 6.69807 6.97758 5.24621 8.77023 5.24072H16.7702C18.5628 5.24621 20.0147 6.69807 20.0202 8.49072V16.4907ZM17.5202 8.74072C18.0725 8.74072 18.5202 8.293 18.5202 7.74072C18.5202 7.18844 18.0725 6.74072 17.5202 6.74072C16.9679 6.74072 16.5202 7.18844 16.5202 7.74072C16.5202 8.293 16.9679 8.74072 17.5202 8.74072ZM12.7702 7.99072C10.285 7.99072 8.27023 10.0054 8.27023 12.4907C8.27023 14.976 10.285 16.9907 12.7702 16.9907C15.2555 16.9907 17.2702 14.976 17.2702 12.4907C17.2729 11.2964 16.7996 10.1503 15.9551 9.3058C15.1106 8.46131 13.9645 7.98806 12.7702 7.99072ZM10.0202 12.4907C10.0202 14.0095 11.2514 15.2407 12.7702 15.2407C14.289 15.2407 15.5202 14.0095 15.5202 12.4907C15.5202 10.9719 14.289 9.74072 12.7702 9.74072C11.2514 9.74072 10.0202 10.9719 10.0202 12.4907Z" fill="#5D00FF"/>
</svg>
