<svg width="25" height="25" viewBox="0 0 25 25" fill="none" xmlns="http://www.w3.org/2000/svg">
<path fill-rule="evenodd" clip-rule="evenodd" d="M5.27023 3.49072C4.4418 3.49072 3.77023 4.16229 3.77023 4.99072V19.9907C3.77023 20.8191 4.4418 21.4907 5.27023 21.4907H20.2702C21.0986 21.4907 21.7702 20.8191 21.7702 19.9907V4.99072C21.7702 4.16229 21.0986 3.49072 20.2702 3.49072H5.27023ZM9.29099 7.49344C9.29662 8.44969 8.58084 9.03891 7.73146 9.03469C6.9313 9.03047 6.2338 8.39344 6.23802 7.49485C6.24224 6.64969 6.91021 5.97047 7.77787 5.99016C8.65818 6.00985 9.29662 6.65532 9.29099 7.49344ZM13.0499 10.2525H10.5299H10.5285V18.8123H13.1919V18.6126C13.1919 18.2327 13.1916 17.8527 13.1913 17.4726C13.1905 16.4588 13.1896 15.4439 13.1948 14.4304C13.1962 14.1843 13.2074 13.9284 13.2707 13.6935C13.5083 12.816 14.2973 12.2493 15.1776 12.3886C15.7429 12.4771 16.1169 12.8048 16.2744 13.3378C16.3715 13.671 16.4151 14.0296 16.4193 14.377C16.4307 15.4246 16.4291 16.4722 16.4275 17.5199C16.4269 17.8897 16.4263 18.2597 16.4263 18.6295V18.8109H19.0982V18.6056C19.0982 18.1536 19.098 17.7017 19.0977 17.2498C19.0972 16.1203 19.0966 14.9908 19.0996 13.8609C19.101 13.3504 19.0462 12.847 18.921 12.3534C18.734 11.6193 18.3473 11.0118 17.7187 10.5731C17.2729 10.2609 16.7835 10.0598 16.2365 10.0373C16.1742 10.0347 16.1114 10.0313 16.0483 10.0279C15.7686 10.0128 15.4843 9.99745 15.2169 10.0514C14.4519 10.2047 13.7798 10.5548 13.2721 11.1721C13.2131 11.2429 13.1554 11.3148 13.0693 11.4221L13.0499 11.4464V10.2525ZM6.45187 18.8151H9.10265V10.2581H6.45187V18.8151Z" fill="#5D00FF"/>
</svg>
