<svg width="25" height="25" viewBox="0 0 25 25" fill="none" xmlns="http://www.w3.org/2000/svg">
<g clip-path="url(#clip0_5240_15074)">
<path d="M23.2708 12.248C23.2708 13.148 22.1708 13.888 21.9508 14.708C21.7308 15.528 22.3008 16.758 21.8708 17.498C21.4408 18.238 20.1008 18.348 19.4908 18.968C18.8808 19.588 18.7808 20.908 18.0208 21.338C17.2608 21.768 16.0808 21.198 15.2308 21.428C14.3808 21.658 13.6608 22.748 12.7708 22.748C11.8808 22.748 11.1408 21.648 10.3108 21.428C9.48081 21.208 8.31081 21.778 7.52081 21.338C6.73081 20.898 6.67081 19.578 6.05081 18.968C5.43081 18.358 4.11081 18.248 3.67081 17.498C3.23081 16.748 3.82081 15.568 3.59081 14.708C3.36081 13.848 2.27081 13.148 2.27081 12.248C2.27081 11.348 3.37081 10.608 3.59081 9.78805C3.81081 8.96805 3.24081 7.78805 3.67081 6.99805C4.10081 6.20805 5.43081 6.14805 6.05081 5.52805C6.67081 4.90805 6.77081 3.58805 7.52081 3.14805C8.27081 2.70805 9.45081 3.29805 10.3108 3.06805C11.1708 2.83805 11.8708 1.74805 12.7708 1.74805C13.6708 1.74805 14.4108 2.84805 15.2308 3.06805C16.0508 3.28805 17.2308 2.71805 18.0208 3.14805C18.8108 3.57805 18.8708 4.90805 19.4908 5.52805C20.1108 6.14805 21.4308 6.24805 21.8708 6.99805C22.3108 7.74805 21.7208 8.92805 21.9508 9.78805C22.1808 10.648 23.2708 11.348 23.2708 12.248Z" stroke="#5D00FF" stroke-width="2" stroke-miterlimit="10" stroke-linecap="square"/>
<path d="M8.00079 17.018V8.42798" stroke="#5D00FF" stroke-width="2" stroke-miterlimit="10"/>
<path d="M7.93079 15.1081H8.93079L10.8408 16.1081H15.2408C15.6204 16.1081 15.989 15.9812 16.288 15.7474C16.5871 15.5136 16.7992 15.1865 16.8908 14.8181L17.4708 12.4881C17.5076 12.3547 17.5245 12.2165 17.5208 12.0781C17.5208 11.6272 17.3417 11.1948 17.0229 10.876C16.7041 10.5572 16.2717 10.3781 15.8208 10.3781H13.7708L14.4408 9.03811C14.6306 8.66651 14.7299 8.25536 14.7308 7.83811C14.7321 7.67049 14.7002 7.50427 14.637 7.34903C14.5738 7.19379 14.4804 7.0526 14.3624 6.93361C14.2443 6.81462 14.1039 6.72017 13.9491 6.65573C13.7944 6.59128 13.6284 6.5581 13.4608 6.55811C13.2663 6.56155 13.0752 6.60927 12.9019 6.69764C12.7286 6.78601 12.5778 6.9127 12.4608 7.06811L9.91079 10.3381H8.00079" stroke="#5D00FF" stroke-width="2" stroke-miterlimit="10"/>
</g>
<defs>
<clipPath id="clip0_5240_15074">
<rect width="24" height="24" fill="white" transform="translate(0.770813 0.248047)"/>
</clipPath>
</defs>
</svg>
