<svg width="25" height="25" viewBox="0 0 25 25" fill="none" xmlns="http://www.w3.org/2000/svg">
<g clip-path="url(#clip0_5230_16715)">
<path d="M9.91081 17.0219C9.91081 17.0219 8.77081 13.4219 10.8608 11.2519C11.7505 10.5117 12.7278 9.88366 13.7708 9.38194C13.7694 8.47173 14.0279 7.58004 14.5159 6.81172C15.0039 6.04339 15.7012 5.43037 16.5257 5.04475C17.3502 4.65912 18.2676 4.51692 19.1702 4.63485C20.0727 4.75279 20.9228 5.12597 21.6205 5.7105C22.3182 6.29504 22.8345 7.06663 23.1087 7.93456C23.383 8.80249 23.4036 9.73067 23.1684 10.61C22.9332 11.4892 22.4518 12.2831 21.7808 12.8981C21.1098 13.5132 20.2772 13.9239 19.3808 14.0819C17.5508 16.8519 13.5508 21.7919 8.05081 21.7919C5.13081 21.7919 2.27081 13.2519 2.27081 9.38194V4.73194C2.27255 4.15451 2.49526 3.59964 2.89321 3.18123C3.29117 2.76282 3.83419 2.5126 4.41081 2.48194C6.14081 2.39194 8.41081 2.48194 8.95081 3.65194C9.77081 5.36194 8.00081 8.43194 6.09081 8.43194C6.09081 9.93194 7.92081 13.1919 9.58081 14.9919" stroke="#5D00FF" stroke-width="2" stroke-miterlimit="10"/>
</g>
<defs>
<clipPath id="clip0_5230_16715">
<rect width="24" height="24" fill="white" transform="translate(0.770813 0.251953)"/>
</clipPath>
</defs>
</svg>
