<svg width="49" height="49" viewBox="0 0 49 49" fill="none" xmlns="http://www.w3.org/2000/svg">
<path d="M43.9108 45.2523H11.4508C10.4377 45.2523 9.46604 44.8498 8.74965 44.1335C8.03326 43.4171 7.6308 42.4454 7.6308 41.4323C7.63605 40.4208 8.0402 39.4522 8.75546 38.737C9.47071 38.0217 10.4393 37.6176 11.4508 37.6123H43.9108" stroke="#5D00FF" stroke-width="2" stroke-miterlimit="10"/>
<path d="M38.1708 45.252H11.4508C10.4377 45.252 9.46604 44.8495 8.74965 44.1331C8.03326 43.4167 7.6308 42.4451 7.6308 41.432V7.07195C7.6308 6.05883 8.03326 5.08719 8.74965 4.37081C9.46604 3.65442 10.4377 3.25195 11.4508 3.25195H41.9908V37.612H38.1708V45.252Z" stroke="#5D00FF" stroke-width="2" stroke-miterlimit="10"/>
<path d="M28.6308 22.6322V18.2322L24.8108 16.0322L20.9908 18.2322V22.6322L24.8108 24.8322L28.6308 22.6322Z" stroke="#5D00FF" stroke-width="2" stroke-miterlimit="10"/>
<path d="M20.9908 22.3516L15.2708 25.5716" stroke="#5D00FF" stroke-width="2" stroke-miterlimit="10"/>
<path d="M28.6308 17.5116L32.4508 15.2916V10.8916" stroke="#5D00FF" stroke-width="2" stroke-miterlimit="10"/>
<path d="M24.8108 29.972V24.252" stroke="#5D00FF" stroke-width="2" stroke-miterlimit="10"/>
</svg>
