<svg width="25" height="25" viewBox="0 0 25 25" fill="none" xmlns="http://www.w3.org/2000/svg">
<g clip-path="url(#clip0_5240_15014)">
<path d="M13.7102 1.85791V16.0279C13.7102 16.7785 13.4121 17.4983 12.8813 18.029C12.3506 18.5598 11.6308 18.8579 10.8802 18.8579C10.1297 18.8579 9.40985 18.5598 8.87912 18.029C8.34839 17.4983 8.05023 16.7785 8.05023 16.0279C8.05023 15.2764 8.34807 14.5556 8.87851 14.0233C9.40895 13.4909 10.1288 13.1906 10.8802 13.1879V9.41791C9.12715 9.41791 7.44587 10.1143 6.20626 11.3539C4.96664 12.5935 4.27023 14.2748 4.27023 16.0279C4.27023 17.781 4.96664 19.4623 6.20626 20.7019C7.44587 21.9415 9.12715 22.6379 10.8802 22.6379C12.6333 22.6379 14.3146 21.9415 15.5542 20.7019C16.7938 19.4623 17.4902 17.781 17.4902 16.0279V9.41791L17.6902 9.51791C18.8031 10.0693 20.0282 10.3568 21.2702 10.3579V6.57791H21.1602C20.1116 6.31667 19.1806 5.712 18.5155 4.86023C17.8503 4.00846 17.4894 2.95859 17.4902 1.87791H13.7102V1.85791Z" stroke="#5D00FF" stroke-width="2" stroke-miterlimit="10"/>
</g>
<defs>
<clipPath id="clip0_5240_15014">
<rect width="24" height="24" fill="white" transform="translate(0.770233 0.248047)"/>
</clipPath>
</defs>
</svg>
