<svg width="49" height="49" viewBox="0 0 49 49" fill="none" xmlns="http://www.w3.org/2000/svg">
<path d="M20.9508 3.25195H28.6108C30.1332 3.25195 31.5931 3.8567 32.6696 4.93316C33.7461 6.00962 34.3508 7.46961 34.3508 8.99195V18.552C34.3508 19.8091 34.1029 21.0539 33.6212 22.215C33.1395 23.3762 32.4335 24.431 31.5437 25.319C30.6538 26.207 29.5976 26.9107 28.4354 27.39C27.2732 27.8692 26.0279 28.1146 24.7708 28.112C22.2353 28.112 19.8037 27.1047 18.0109 25.3119C16.218 23.519 15.2108 21.0874 15.2108 18.552V8.99195C15.2108 7.46961 15.8156 6.00962 16.892 4.93316C17.9685 3.8567 19.4285 3.25195 20.9508 3.25195Z" stroke="#5D00FF" stroke-width="2" stroke-miterlimit="10"/>
<path d="M15.2108 10.9121H34.3508C34.3508 11.6676 34.2017 12.4156 33.912 13.1133C33.6223 13.8111 33.1977 14.4447 32.6625 14.978C32.1274 15.5113 31.4923 15.9336 30.7936 16.2209C30.0948 16.5082 29.3463 16.6547 28.5908 16.6521H20.9508C19.4285 16.6521 17.9685 16.0474 16.892 14.9709C15.8156 13.8944 15.2108 12.4345 15.2108 10.9121Z" stroke="#5D00FF" stroke-width="2" stroke-miterlimit="10"/>
<path d="M7.55081 47.2523V45.2523C7.57721 40.7008 9.40247 36.3444 12.6284 33.1334C15.8544 29.9225 20.2192 28.1175 24.7708 28.1123C29.3362 28.1176 33.7131 29.9335 36.9413 33.1618C40.1696 36.39 41.9855 40.7669 41.9908 45.3323V47.3323" stroke="#5D00FF" stroke-width="2" stroke-miterlimit="10"/>
<path d="M24.7708 43.4318C25.8312 43.4318 26.6908 42.5722 26.6908 41.5118C26.6908 40.4514 25.8312 39.5918 24.7708 39.5918C23.7104 39.5918 22.8508 40.4514 22.8508 41.5118C22.8508 42.5722 23.7104 43.4318 24.7708 43.4318Z" stroke="#5D00FF" stroke-width="2" stroke-miterlimit="10"/>
<path d="M26.6908 47.2517V41.5117" stroke="#5D00FF" stroke-width="2" stroke-miterlimit="10"/>
<path d="M15.2108 28.1318L24.7708 39.5918L34.3308 28.1318" stroke="#5D00FF" stroke-width="2" stroke-miterlimit="10"/>
</svg>
