<svg width="49" height="49" viewBox="0 0 49 49" fill="none" xmlns="http://www.w3.org/2000/svg">
<g clip-path="url(#clip0_5230_16888)">
<path d="M19.0908 10.892C21.2005 10.892 22.9108 9.18168 22.9108 7.07195C22.9108 4.96223 21.2005 3.25195 19.0908 3.25195C16.9811 3.25195 15.2708 4.96223 15.2708 7.07195C15.2708 9.18168 16.9811 10.892 19.0908 10.892Z" stroke="#5D00FF" stroke-width="2" stroke-miterlimit="10"/>
<path d="M7.63081 18.5323L11.4508 12.7923H26.7308L30.5508 7.07227" stroke="#5D00FF" stroke-width="2" stroke-miterlimit="10"/>
<path d="M17.1908 12.792L13.3508 29.972H3.81081" stroke="#5D00FF" stroke-width="2" stroke-miterlimit="10"/>
<path d="M15.2708 22.332L24.8108 28.072V39.532" stroke="#5D00FF" stroke-width="2" stroke-miterlimit="10"/>
<path d="M41.9908 37.6123H7.63081C5.52108 37.6123 3.81081 39.3226 3.81081 41.4323C3.81081 43.542 5.52108 45.2523 7.63081 45.2523H41.9908C44.1005 45.2523 45.8108 43.542 45.8108 41.4323C45.8108 39.3226 44.1005 37.6123 41.9908 37.6123Z" stroke="#5D00FF" stroke-width="2" stroke-miterlimit="10"/>
<path d="M38.1708 18.5322V37.6122" stroke="#5D00FF" stroke-width="2" stroke-miterlimit="10"/>
<path d="M47.7308 10.8916L43.9108 18.5316H32.4508" stroke="#5D00FF" stroke-width="2" stroke-miterlimit="10"/>
</g>
<defs>
<clipPath id="clip0_5230_16888">
<rect width="48" height="48" fill="white" transform="translate(0.770813 0.251953)"/>
</clipPath>
</defs>
</svg>
