<svg width="22" height="17" viewBox="0 0 22 17" fill="none" xmlns="http://www.w3.org/2000/svg">
<path d="M18.539 1.57809C17.209 0.958093 15.769 0.508093 14.269 0.248093C14.2558 0.247672 14.2427 0.25014 14.2306 0.255324C14.2186 0.260507 14.2077 0.26828 14.199 0.278093C14.019 0.608093 13.809 1.03809 13.669 1.36809C12.078 1.12809 10.46 1.12809 8.86898 1.36809C8.72898 1.02809 8.51898 0.608093 8.32898 0.278093C8.31898 0.258093 8.28898 0.248093 8.25898 0.248093C6.75898 0.508093 5.32898 0.958093 3.98898 1.57809C3.97898 1.57809 3.96898 1.58809 3.95898 1.59809C1.23898 5.66809 0.488977 9.62809 0.858977 13.5481C0.858977 13.5681 0.868977 13.5881 0.888977 13.5981C2.68898 14.9181 4.41898 15.7181 6.12898 16.2481C6.15898 16.2581 6.18898 16.2481 6.19898 16.2281C6.59898 15.6781 6.95898 15.0981 7.26898 14.4881C7.28898 14.4481 7.26898 14.4081 7.22898 14.3981C6.65898 14.1781 6.11898 13.9181 5.58898 13.6181C5.54898 13.5981 5.54898 13.5381 5.57898 13.5081C5.68898 13.4281 5.79898 13.3381 5.90898 13.2581C5.92898 13.2381 5.95898 13.2381 5.97898 13.2481C9.41898 14.8181 13.129 14.8181 16.529 13.2481C16.549 13.2381 16.579 13.2381 16.599 13.2581C16.709 13.3481 16.819 13.4281 16.929 13.5181C16.969 13.5481 16.969 13.6081 16.919 13.6281C16.399 13.9381 15.849 14.1881 15.279 14.4081C15.239 14.4181 15.229 14.4681 15.239 14.4981C15.559 15.1081 15.919 15.6881 16.309 16.2381C16.339 16.2481 16.369 16.2581 16.399 16.2481C18.119 15.7181 19.849 14.9181 21.649 13.5981C21.669 13.5881 21.679 13.5681 21.679 13.5481C22.119 9.01809 20.949 5.08809 18.579 1.59809C18.569 1.58809 18.559 1.57809 18.539 1.57809ZM7.78898 11.1581C6.75898 11.1581 5.89898 10.2081 5.89898 9.03809C5.89898 7.86809 6.73898 6.91809 7.78898 6.91809C8.84898 6.91809 9.68898 7.87809 9.67898 9.03809C9.67898 10.2081 8.83898 11.1581 7.78898 11.1581ZM14.759 11.1581C13.729 11.1581 12.869 10.2081 12.869 9.03809C12.869 7.86809 13.709 6.91809 14.759 6.91809C15.819 6.91809 16.659 7.87809 16.649 9.03809C16.649 10.2081 15.819 11.1581 14.759 11.1581Z" fill="#5D00FF"/>
</svg>
