<svg width="21" height="20" viewBox="0 0 21 20" fill="none" xmlns="http://www.w3.org/2000/svg">
<path d="M9.84169 0.864297C10.1854 0.0478377 11.3562 0.0478388 11.6999 0.864299L13.7287 5.68319C13.8737 6.02739 14.2014 6.26256 14.5775 6.29235L19.8435 6.70943C20.7357 6.7801 21.0975 7.88009 20.4177 8.45535L16.4056 11.8506C16.119 12.0932 15.9938 12.4737 16.0814 12.8363L17.3071 17.913C17.5148 18.7731 16.5677 19.453 15.8038 18.9921L11.2953 16.2715C10.9733 16.0772 10.5683 16.0772 10.2463 16.2715L5.7378 18.9921C4.97392 19.453 4.02677 18.7731 4.23445 17.913L5.46024 12.8363C5.54779 12.4737 5.42264 12.0932 5.13607 11.8506L1.12388 8.45535C0.444095 7.88009 0.805881 6.7801 1.6981 6.70943L6.96417 6.29235C7.34031 6.26256 7.66797 6.02739 7.81288 5.68319L9.84169 0.864297Z" fill="#FF6700"/>
</svg>
