<svg width="25" height="25" viewBox="0 0 25 25" fill="none" xmlns="http://www.w3.org/2000/svg">
<g clip-path="url(#clip0_5230_16786)">
<path d="M3.21082 23.732C3.21203 21.4472 3.74618 19.1941 4.77082 17.152C5.11082 16.412 5.48082 15.722 5.77082 15.032C6.56724 13.5944 7.00304 11.985 7.04082 10.342C6.93333 7.06787 6.28456 3.83416 5.12082 0.771973" stroke="#5D00FF" stroke-width="2" stroke-miterlimit="10"/>
<path d="M22.3408 23.732C22.3516 21.487 21.8451 19.2697 20.8608 17.252C20.5008 16.492 20.1308 15.782 19.7908 15.082C18.9909 13.6453 18.5517 12.0359 18.5108 10.392C18.6102 7.10071 19.2591 3.84922 20.4308 0.771973" stroke="#5D00FF" stroke-width="2" stroke-miterlimit="10"/>
<path d="M20.8608 17.2517L14.4808 22.2517C13.995 22.6299 13.3964 22.8341 12.7808 22.8317C12.1562 22.8314 11.5501 22.6199 11.0608 22.2317L4.77081 17.1517C5.11081 16.4117 5.48081 15.7217 5.77081 15.0317C10.3635 16.2068 15.1781 16.2068 19.7708 15.0317C20.1308 15.7317 20.5008 16.4417 20.8608 17.2517Z" stroke="#5D00FF" stroke-width="2" stroke-miterlimit="10"/>
<path d="M12.7708 8.42188V10.3419" stroke="#5D00FF" stroke-width="2" stroke-miterlimit="10"/>
<path d="M1.86081 8.03174L4.17081 10.3417L1.86081 12.6517" stroke="#5D00FF" stroke-width="2" stroke-miterlimit="10"/>
<path d="M23.8608 12.6517L21.5508 10.3417L23.8608 8.03174" stroke="#5D00FF" stroke-width="2" stroke-miterlimit="10"/>
</g>
<defs>
<clipPath id="clip0_5230_16786">
<rect width="24" height="24" fill="white" transform="translate(0.770813 0.251953)"/>
</clipPath>
</defs>
</svg>
